<svg width="256" height="256" viewBox="0 0 256 256" fill="none" xmlns="http://www.w3.org/2000/svg">
<g clip-path="url(#clip0_1_14)">
<rect width="256" height="256" rx="32" fill="#3273EB"/>
<path d="M79.2805 174.152C73.4778 174.152 68.2725 173.128 63.6645 171.08C59.0565 168.947 55.3872 166.088 52.6565 162.504C50.0112 158.92 48.5605 154.952 48.3045 150.6H66.3525C66.6938 153.331 68.0165 155.592 70.3205 157.384C72.7098 159.176 75.6538 160.072 79.1525 160.072C82.5658 160.072 85.2112 159.389 87.0885 158.024C89.0512 156.659 90.0325 154.909 90.0325 152.776C90.0325 150.472 88.8378 148.765 86.4485 147.656C84.1445 146.461 80.4325 145.181 75.3125 143.816C70.0218 142.536 65.6698 141.213 62.2565 139.848C58.9285 138.483 56.0272 136.392 53.5525 133.576C51.1632 130.76 49.9685 126.963 49.9685 122.184C49.9685 118.259 51.0778 114.675 53.2965 111.432C55.6005 108.189 58.8432 105.629 63.0245 103.752C67.2912 101.875 72.2832 100.936 78.0005 100.936C86.4485 100.936 93.1898 103.069 98.2245 107.336C103.259 111.517 106.033 117.192 106.545 124.36H89.3925C89.1365 121.544 87.9418 119.325 85.8085 117.704C83.7605 115.997 80.9872 115.144 77.4885 115.144C74.2458 115.144 71.7285 115.741 69.9365 116.936C68.2298 118.131 67.3765 119.795 67.3765 121.928C67.3765 124.317 68.5712 126.152 70.9605 127.432C73.3498 128.627 77.0618 129.864 82.0965 131.144C87.2165 132.424 91.4405 133.747 94.7685 135.112C98.0965 136.477 100.955 138.611 103.345 141.512C105.819 144.328 107.099 148.083 107.185 152.776C107.185 156.872 106.033 160.541 103.729 163.784C101.51 167.027 98.2672 169.587 94.0005 171.464C89.8192 173.256 84.9125 174.152 79.2805 174.152ZM190.631 173L180.903 163.4C172.625 170.824 162.513 174.536 150.567 174.536C143.996 174.536 138.193 173.427 133.159 171.208C128.209 168.904 124.369 165.704 121.639 161.608C118.908 157.427 117.543 152.605 117.543 147.144C117.543 141.256 119.207 135.965 122.535 131.272C125.863 126.579 130.769 122.781 137.255 119.88C134.951 117.064 133.287 114.376 132.263 111.816C131.239 109.171 130.727 106.355 130.727 103.368C130.727 99.272 131.793 95.6027 133.927 92.36C136.06 89.032 139.089 86.4293 143.015 84.552C147.025 82.6747 151.676 81.736 156.967 81.736C162.343 81.736 166.951 82.76 170.791 84.808C174.631 86.856 177.489 89.5867 179.367 93C181.244 96.4133 182.055 100.211 181.799 104.392H164.391C164.476 101.576 163.793 99.4427 162.343 97.992C160.892 96.456 158.929 95.688 156.455 95.688C154.065 95.688 152.06 96.4133 150.439 97.864C148.903 99.2293 148.135 101.021 148.135 103.24C148.135 105.373 148.775 107.507 150.055 109.64C151.335 111.688 153.425 114.248 156.327 117.32L178.854 139.592C179.025 139.421 179.153 139.251 179.239 139.08C179.324 138.909 179.409 138.739 179.495 138.568L186.791 126.408H205.479L196.519 142.152C194.812 145.48 192.977 148.637 191.015 151.624L212.647 173H190.631ZM151.079 159.688C158.076 159.688 164.263 157.213 169.639 152.264L147.623 130.504C139.345 134.173 135.207 139.379 135.207 146.12C135.207 149.96 136.657 153.203 139.559 155.848C142.46 158.408 146.3 159.688 151.079 159.688Z" fill="white"/>
</g>
<defs>
<clipPath id="clip0_1_14">
<rect width="256" height="256" rx="32" fill="white"/>
</clipPath>
</defs>
</svg>
