<svg width="50" height="50" viewBox="0 0 50 50" fill="none" xmlns="http://www.w3.org/2000/svg">
<g clip-path="url(#clip0_10_16)">
<path d="M20.6152 3.22266C18.0859 3.22266 15.791 3.48437 14.1992 3.88281C13.3984 4.08203 12.7734 4.32324 12.4219 4.53223C12.2949 4.6084 12.2559 4.64746 12.2168 4.6875C12.2559 4.72754 12.2949 4.7666 12.4219 4.84277C12.7734 5.05176 13.3984 5.29297 14.1992 5.49219C15.791 5.89063 18.0859 6.15234 20.6152 6.15234C23.1445 6.15234 25.4395 5.89063 27.0312 5.49219C27.832 5.29297 28.457 5.05176 28.8086 4.84277C28.9355 4.7666 28.9746 4.72754 29.0137 4.6875C28.9746 4.64746 28.9355 4.6084 28.8086 4.53223C28.457 4.32324 27.832 4.08203 27.0312 3.88281C25.4395 3.48437 23.1445 3.22266 20.6152 3.22266ZM12.1191 6.65332V10.5664C12.7539 10.8887 13.584 11.2109 14.1992 11.3672C15.791 11.7676 18.0859 12.0312 20.6152 12.0312C23.1445 12.0312 25.4395 11.7676 27.0312 11.3672C28.2031 11.084 28.3398 11.0547 29.1113 10.5664V6.65332C28.6328 6.86426 28.0859 7.04102 27.4609 7.19727C25.6543 7.64746 23.2617 7.91016 20.6152 7.91016C17.9688 7.91016 15.5762 7.64746 13.7695 7.19727C13.1445 7.04102 12.5977 6.86426 12.1191 6.65332ZM12.959 12.8516C12.1484 13.1348 11.3477 13.6426 10.6934 14.2969C9.65625 15.3223 8.99414 16.6992 8.99414 17.9688V24.2188C8.99414 24.707 9.20898 25.127 9.76172 25.6055C10.3125 26.0742 11.2012 26.5332 12.2949 26.9043C14.502 27.6367 17.5586 28.0273 20.6152 28.0273C23.6621 28.0273 26.7285 27.6367 28.9355 26.9043C30.0293 26.5332 30.918 26.0742 31.4648 25.6055C32.0215 25.127 32.2363 24.707 32.2363 24.2188V17.9688C32.2363 16.6992 31.5723 15.3223 30.5371 14.2969C29.8828 13.6426 29.0918 13.1348 28.2715 12.8516C28.0176 12.9297 27.7441 13.0078 27.4609 13.0762C25.6543 13.5254 23.2617 13.7891 20.6152 13.7891C17.9688 13.7891 15.5762 13.5254 13.7695 13.0762C13.4863 13.0078 13.2129 12.9297 12.959 12.8516ZM8.99414 27.2363V33.5938C8.99414 34.082 9.20898 34.502 9.76172 34.9805C10.3125 35.4492 11.2012 35.9082 12.2949 36.2793C14.502 37.0117 17.5586 37.4023 20.6152 37.4023C23.6621 37.4023 26.7285 37.0117 28.9355 36.2793C30.0293 35.9082 30.918 35.4492 31.4648 34.9805C32.0215 34.502 32.2363 34.082 32.2363 33.5938V27.2363C31.4746 27.7832 30.5469 28.2129 29.4824 28.5645C27.002 29.3945 23.8086 29.7852 20.6152 29.7852C17.4121 29.7852 14.2285 29.3945 11.748 28.5645C10.6836 28.2129 9.75098 27.7832 8.99414 27.2363ZM8.99414 36.6113V42.9688C8.99414 43.457 9.20898 43.877 9.76172 44.3555C10.3125 44.8242 11.2012 45.2832 12.2949 45.6543C14.502 46.3867 17.5586 46.7773 20.6152 46.7773C22.3242 46.7773 24.0527 46.6504 25.6152 46.416C25.3027 45.9766 25.1074 45.4785 25.1074 44.9121C25.1074 43.7598 25.918 42.8516 26.9336 42.2852C27.5488 41.9336 28.2812 41.6895 29.082 41.543C29.2969 40.6738 30 39.9805 30.8301 39.5117C31.25 39.2773 31.7285 39.082 32.2363 38.9355V36.6113C31.4746 37.1582 30.5469 37.5879 29.4824 37.9395C27.002 38.7695 23.8086 39.1602 20.6152 39.1602C17.4121 39.1602 14.2285 38.7695 11.748 37.9395C10.6836 37.5879 9.75098 37.1582 8.99414 36.6113ZM34.5703 40.3906C33.4082 40.3906 32.3633 40.6641 31.6895 41.0449C31.4648 41.1719 31.2988 41.2988 31.1621 41.416C32.3926 41.4844 33.5254 41.7871 34.4141 42.2852C35.0195 42.627 35.5566 43.0859 35.8789 43.6426C36.1719 42.9102 36.7969 42.3145 37.5391 41.9043C37.7344 41.7969 37.9395 41.6992 38.1543 41.6016C38.0078 41.4258 37.7832 41.2305 37.4512 41.0449C36.7773 40.6641 35.7324 40.3906 34.5703 40.3906ZM41.2793 42.7832C40.1172 42.7832 39.0723 43.0566 38.3984 43.4375C37.7148 43.8184 37.4707 44.2285 37.4707 44.5312C37.4707 44.834 37.7148 45.2441 38.3984 45.625C39.0723 46.0059 40.1172 46.2793 41.2793 46.2793C42.4414 46.2793 43.4863 46.0059 44.1602 45.625C44.8438 45.2441 45.0879 44.834 45.0879 44.5312C45.0879 44.2285 44.8438 43.8184 44.1602 43.4375C43.4863 43.0566 42.4414 42.7832 41.2793 42.7832ZM30.6738 43.1641C29.5117 43.1641 28.4668 43.4375 27.793 43.8184C27.1094 44.1992 26.8652 44.6094 26.8652 44.9121C26.8652 45.2148 27.1094 45.625 27.793 46.0059C28.4668 46.3867 29.5117 46.6602 30.6738 46.6602C31.8359 46.6602 32.8809 46.3867 33.5547 46.0059C34.2383 45.625 34.4824 45.2148 34.4824 44.9121C34.4824 44.6094 34.2383 44.1992 33.5547 43.8184C32.8809 43.4375 31.8359 43.1641 30.6738 43.1641Z" fill="black"/>
</g>
<defs>
<clipPath id="clip0_10_16">
<rect width="50" height="50" fill="white"/>
</clipPath>
</defs>
</svg>
