<svg width="50" height="50" viewBox="0 0 50 50" fill="none" xmlns="http://www.w3.org/2000/svg">
<g clip-path="url(#clip0_2_10)">
<path d="M25 7.12891C18.8599 7.12891 16.0241 8.2957 14.7194 9.76357C13.5835 11.0415 13.4183 12.7761 13.3923 14.7461H16.3646C16.5242 13.3825 17.0784 12.1641 18.2629 11.3752C19.6976 10.4199 21.8021 10.0586 25 10.0586C28.1985 10.0586 30.3038 10.4237 31.7379 11.3809C32.921 12.1703 33.475 13.3873 33.635 14.7461H36.6077C36.5817 12.7761 36.4165 11.0415 35.2806 9.76357C33.9759 8.2957 31.1401 7.12891 25 7.12891ZM11.8164 16.3086V17.8711H17.8711V16.3086H11.8164ZM32.1289 16.3086V17.8711H38.1836V16.3086H32.1289ZM7.95605 19.6289C6.60195 19.6289 5.19902 20.2966 4.15039 21.3293C3.10176 22.3621 2.44141 23.7305 2.44141 25V43.75C2.44141 45.166 2.78174 46.0697 3.35645 46.6438C3.93096 47.2178 4.83691 47.5586 6.25615 47.5586H43.7939C45.1858 47.5586 46.0773 47.2204 46.6474 46.6463C47.2175 46.0723 47.5586 45.166 47.5586 43.75V25C47.5586 23.7305 46.8968 22.3584 45.863 21.3245C44.8291 20.2907 43.457 19.6289 42.1875 19.6289H7.95605ZM21.875 25H28.125V31.25H34.375V37.5H28.125V43.75H21.875V37.5H15.625V31.25H21.875V25Z" fill="black"/>
</g>
<defs>
<clipPath id="clip0_2_10">
<rect width="50" height="50" fill="white"/>
</clipPath>
</defs>
</svg>
